<?xml version="1.0" encoding="utf-8"?>
<!-- Generator: Adobe Illustrator 26.0.1, SVG Export Plug-In . SVG Version: 6.00 Build 0)  -->
<svg version="1.1" id="Layer_1" xmlns="http://www.w3.org/2000/svg" xmlns:xlink="http://www.w3.org/1999/xlink" x="0px" y="0px"
	viewBox="0 0 46 46" style="enable-background:new 0 0 46 46;" xml:space="preserve"
	>
<style type="text/css">
	.st0{fill:#364152;}
</style>
<path class="st0" d="M28.1,0.8c1.9,0.6,2.2,2.6,0.7,3.9c-0.8,0.7-1.5,1.5-2.2,2.2c-0.2,0.2-0.3,0.4-0.2,0.7c0.7-0.3,1.4-0.8,2.2-1
	c1-0.3,2-0.2,3,0.3c0.3,0.1,0.4,0.1,0.6-0.1c0.5-0.4,1-0.8,1.5-1.2c1.3-1.1,3.2-0.6,3.9,1c0.2,0.5,0.1,1-0.4,1.4
	c-0.8,0.7-1.7,1.4-2.5,2.1c-0.4,0.3-0.5,0.5-0.5,1c0,1.8,0,3.5,0,5.3c0,0.2,0,0.3,0,0.5c0.2,0,0.3,0,0.5,0c1.3,0,2.7,0,4,0
	c1.5,0,2.5,1,2.6,2.4c0.3,3.4,0.7,6.7,1,10.1c0.3,3.1,0.6,6.1,0.9,9.2c0.1,0.7,0.1,1.4,0.2,2.1c0.3,2.1-1.1,3.7-3.3,3.7
	c-7,0-14,0-21,0c-2.1,0-3.5-1.4-3.3-3.5c0.2-2.5,0.5-5,0.7-7.6c0.2-2.1,0.4-4.1,0.6-6.2c0.1-0.5,0.3-0.8,0.7-0.7
	c0.4,0.1,0.6,0.4,0.5,0.9c-0.3,3.1-0.6,6.1-0.9,9.2c-0.1,1.5-0.3,3-0.4,4.5c-0.1,1.3,0.7,2.1,2,2.1c7,0,14,0,21,0
	c1.3,0,2.1-0.9,2-2.2c-0.3-3.3-0.7-6.7-1-10c-0.3-3.1-0.6-6.1-0.9-9.2c-0.1-0.8-0.2-1.7-0.3-2.5c-0.1-0.7-0.6-1.1-1.3-1.1
	c-1.4,0-2.7,0-4.1,0c-4.6,0-9.2,0-13.7,0c-1.2,0-1.5,0.4-1.7,1.6c-0.1,1.4-0.3,2.8-0.4,4.2c-0.1,0.5-0.3,0.7-0.7,0.7
	c-0.4,0-0.6-0.4-0.5-0.8c0.2-1.6,0.3-3.1,0.5-4.7c0.1-1.3,1.2-2.2,2.4-2.2c1.5,0,3,0,4.6,0c0-0.9,0-1.7,0-2.6
	c-0.6-0.1-1.2,0-1.7-0.2c-1.1-0.3-2.2-0.7-3.2-1.1c-0.3-0.1-0.5-0.1-0.7,0c-2.3,1.2-4.7,2.3-7,3.5c-0.3,0.1-0.4,0.3-0.3,0.6
	c0.1,0.7,0.1,1.3,0.2,2c0.1,1.1-0.4,2-1.4,2.5C8.5,22.8,6,24,3.6,25.2c-0.4,0.2-0.8,0.1-0.9-0.2c-0.2-0.3,0-0.7,0.4-0.9
	c2.3-1.2,4.7-2.3,7-3.5c0.9-0.4,1.1-0.8,1-1.8c-0.3-2.8-0.5-5.6-0.8-8.3c0-0.1,0-0.3-0.1-0.5c-0.2,0.1-0.3,0.1-0.5,0.2
	c-2,1-4,2-5.9,2.9c-0.1,0.1-0.2,0.1-0.3,0.1c-0.4,0.1-0.7,0-0.9-0.3c-0.1-0.3,0-0.6,0.3-0.8c0.4-0.2,0.9-0.5,1.4-0.7
	C5.9,10.6,7.6,9.9,9.1,9c1-0.5,2.2-0.3,2.4,1.2c0.7-0.4,1.5-0.7,2.2-1.1c0.2-0.1,0.4-0.2,0.6-0.3c0.4-0.2,0.8-0.1,0.9,0.3
	c0.2,0.3,0,0.7-0.4,0.9c-1,0.5-2,1-2.9,1.5c-0.2,0.1-0.3,0.2-0.3,0.4c0.1,1.1,0.2,2.2,0.3,3.4c0.2-0.1,0.3-0.2,0.5-0.2
	c2.3-1.1,4.5-2.2,6.8-3.4c0.4-0.2,0.7-0.2,1.1-0.1c0.7,0.3,1.5,0.5,2.2,0.8c1.5,0.6,3,0.6,4.5,0.1c1.4-0.5,2.8-0.9,4.1-1.4
	c0.6-0.2,1.1-0.7,1.6-1.1c0.1,0,0.1-0.3,0-0.4c-0.2-0.4-0.4-0.7-0.7-1.1c-0.2,0.2-0.4,0.3-0.6,0.5c-0.7,0.6-1.5,0.7-2.3,0.5
	c-0.8-0.2-1.6-0.3-2.4-0.5C26,9,25.5,8.6,25.2,7.9c-0.2-0.7,0-1.3,0.5-1.8c0.8-0.9,1.7-1.7,2.5-2.6c0.3-0.3,0.4-0.6,0.2-0.9
	c-0.1-0.2-0.4-0.4-0.6-0.5c-0.2,0-0.5,0.1-0.7,0.2c-1.5,1-2.9,2-4.4,3c-1.2,0.8-2.4,1.7-3.6,2.5c-0.4,0.3-0.9,0.5-1.4,0.8
	c-0.3,0.2-0.7,0-0.9-0.3c-0.1-0.3,0-0.7,0.3-0.8c2.3-1.2,4.4-2.9,6.6-4.3c0.9-0.6,1.8-1.3,2.8-1.9C26.7,1.1,27,1,27.3,0.8
	C27.6,0.8,27.9,0.8,28.1,0.8z M33,11.6c-0.5,0.2-0.9,0.5-1.4,0.7c-1.6,0.6-3.3,1.1-4.9,1.7c-0.1,0-0.2,0.1-0.2,0.2
	c0,0.9,0,1.8,0,2.7c2.2,0,4.4,0,6.6,0C33,15,33,13.3,33,11.6z M36.5,6.9C36,6.2,35.4,6,34.9,6.3c-0.7,0.4-1.3,0.9-1.9,1.4
	c0.3,0.5,0.6,0.9,0.9,1.3C34.8,8.3,35.6,7.6,36.5,6.9z M28.2,8.1c1.3,0.4,2.1,0.5,2.6-0.2C29.9,7.6,29.1,7.6,28.2,8.1z"/>
</svg>
